<?xml version="1.0" standalone="no"?>
<!DOCTYPE svg PUBLIC "-//W3C//DTD SVG 20010904//EN"
 "http://www.w3.org/TR/2001/REC-SVG-20010904/DTD/svg10.dtd">
<svg version="1.0" xmlns="http://www.w3.org/2000/svg"
 width="260.000000pt" height="260.000000pt" viewBox="0 0 260.000000 260.000000"
 preserveAspectRatio="xMidYMid meet">
<metadata>
Created by potrace 1.14, written by Peter Selinger 2001-2017
</metadata>
<g transform="translate(0.000000,260.000000) scale(0.100000,-0.100000)"
fill="#000000" stroke="none">
<path d="M0 1300 l0 -1300 1300 0 1300 0 0 1300 0 1300 -1300 0 -1300 0 0
-1300z m1266 466 c17 -13 19 -30 22 -174 l3 -160 -36 -41 c-40 -44 -45 -83
-10 -89 11 -2 26 -11 33 -20 17 -23 16 -195 -2 -230 -21 -41 -218 -230 -246
-237 -14 -3 -173 -5 -353 -3 -312 3 -329 4 -343 22 -12 16 -14 96 -14 465 0
399 2 446 17 463 15 17 43 18 463 18 369 0 450 -2 466 -14z m996 -3 c16 -14
18 -34 18 -182 l0 -165 -36 -37 c-41 -42 -40 -60 3 -81 l28 -13 3 -115 3 -115
-124 -123 -124 -122 -337 0 -337 0 -25 25 -25 25 3 446 c3 428 4 446 22 460
16 12 96 14 465 14 399 0 446 -2 463 -17z"/>
<path d="M580 1638 c-17 -18 -20 -35 -20 -100 0 -118 1 -118 202 -118 l161 0
59 58 c54 55 58 62 58 105 0 74 -9 77 -242 77 -190 0 -198 -1 -218 -22z"/>
<path d="M576 1248 c-11 -16 -16 -46 -16 -100 0 -118 1 -118 201 -118 l162 0
58 63 c52 54 59 67 59 103 0 72 -7 74 -243 74 -201 0 -206 0 -221 -22z"/>
<path d="M1582 1644 c-20 -14 -22 -24 -22 -103 0 -123 -4 -121 197 -121 l160
0 63 65 c60 63 62 68 57 106 -9 66 -17 68 -237 69 -161 0 -199 -3 -218 -16z"/>
<path d="M1577 1252 c-13 -14 -17 -39 -17 -105 0 -118 -1 -117 199 -117 l154
0 64 63 c53 54 63 69 63 98 0 19 -7 45 -16 57 -15 22 -20 22 -223 22 -189 0
-209 -2 -224 -18z"/>
</g>
</svg>
